<svg width="909" height="449" viewBox="0 0 909 449" fill="none" xmlns="http://www.w3.org/2000/svg">
<path d="M892.764 140.466C881.564 112.692 864.94 87.4663 843.879 66.286V66.286C823.23 45.4477 798.704 28.9157 771.705 17.6359C744.706 6.35617 715.763 0.550093 686.535 0.550093C657.306 0.550093 628.363 6.35617 601.364 17.6359C574.365 28.9157 549.839 45.4477 529.19 66.286L454.928 141.111L380.492 66.2512C359.854 45.3065 335.314 28.6725 308.28 17.3035C281.245 5.93459 252.248 0.0544514 222.953 0.000376392C193.657 -0.0536986 164.639 5.71933 137.563 16.9884C110.488 28.2574 85.8873 44.8007 65.1732 65.6691C44.4592 86.5376 28.0392 111.321 16.8553 138.596C5.67133 165.872 -0.0564837 195.104 0.000419854 224.614C0.0573234 254.125 5.89783 283.334 17.1869 310.566C28.4759 337.797 44.9913 362.516 65.7857 383.303V383.303C86.4465 404.131 110.979 420.653 137.982 431.925C164.984 443.198 193.927 449 223.156 449C252.386 449 281.328 443.198 308.331 431.925C335.333 420.653 359.866 404.131 380.527 383.303L454.928 308.513L529.207 383.338C565.545 419.835 613.284 442.565 664.346 447.682C715.408 452.8 766.657 439.991 809.421 411.422C852.186 382.854 883.839 340.28 899.027 290.905C914.214 241.531 912.001 188.387 892.764 140.466V140.466ZM297.401 299.637C287.678 309.612 276.09 317.547 263.305 322.985C250.521 328.423 236.793 331.255 222.916 331.319C209.038 331.382 195.286 328.675 182.453 323.355C169.619 318.034 157.96 310.204 148.148 300.319C138.335 290.433 130.564 278.687 125.284 265.759C120.003 252.831 117.318 238.978 117.382 224.998C117.447 211.019 120.26 197.191 125.66 184.313C131.06 171.435 138.939 159.763 148.842 149.97C153.883 144.886 159.422 140.328 165.373 136.368C171.104 132.552 177.199 129.322 183.567 126.725C202.705 118.875 223.718 116.893 243.969 121.029C264.221 125.164 282.809 135.232 297.401 149.97L371.837 224.795L297.401 299.637ZM783.829 264.657C777.312 280.848 766.916 295.161 753.569 306.317C740.221 317.473 724.339 325.126 707.339 328.59C690.34 332.055 672.753 331.224 656.151 326.171C639.548 321.119 624.446 312.003 612.194 299.637L537.88 224.795L612.194 149.97C617.216 144.903 622.731 140.358 628.657 136.403C634.394 132.587 640.494 129.357 646.867 126.76C666.006 118.914 687.018 116.935 707.268 121.07C727.519 125.205 746.107 135.271 760.702 150.004C775.306 164.717 785.287 183.435 789.4 203.824C793.512 224.213 791.575 245.37 783.829 264.657Z" fill="white"/>
</svg>
