<svg width="808" height="342" viewBox="0 0 808 342" fill="none" xmlns="http://www.w3.org/2000/svg">
<path d="M760.815 52.4557C791.479 84.6247 808.419 127.669 807.992 172.329C807.565 216.988 789.804 259.694 758.53 291.258C756.246 293.566 753.891 295.785 751.501 297.933L760.815 307.343H740.115C707.614 331.876 667.452 343.754 626.987 340.8C586.523 337.846 548.468 320.257 519.796 291.258L444.377 215.06L447.979 211.509L523.381 287.689C551.085 315.646 587.788 332.648 626.834 335.612C665.881 338.576 704.686 327.306 736.214 303.845V282.541L747.846 294.294C750.236 292.145 752.591 289.944 754.875 287.618C785.305 256.885 802.532 215.281 802.828 171.812C803.124 128.342 786.465 86.5029 756.457 55.3495H736.214L746.037 45.4076C714.746 18.1027 674.386 3.77612 633.068 5.30759C591.75 6.83905 552.537 24.115 523.311 53.6629L446.14 131.943V152.378L436.141 142.152L288.232 291.24C259.56 320.24 221.505 337.828 181.041 340.782C140.576 343.737 100.413 331.858 67.9132 307.325H45.4912L55.5952 297.117C53.5217 295.223 51.4833 293.264 49.4801 291.24C18.5032 259.981 0.768756 217.778 0.0244099 173.551C-0.719936 129.324 15.5842 86.5362 45.4912 54.231V30.4946L57.3875 42.5314C89.5879 13.8796 131.385 -1.29816 174.271 0.0870972C217.157 1.47235 257.909 19.3166 288.232 49.9879L447.979 211.509L444.377 215.06L284.612 53.6451C255.239 23.9471 215.783 6.65108 174.25 5.26633C132.718 3.88157 92.2195 18.5118 60.9722 46.1886L70.0219 55.3317H51.4658C21.4557 86.4852 4.79715 128.326 5.09643 171.798C5.39571 215.269 22.6287 256.872 53.0648 287.601C55.068 289.625 57.1064 291.595 59.1799 293.477L70.0394 282.523V302.514C101.554 326.635 140.647 338.414 180.091 335.672C219.535 332.931 256.663 315.855 284.612 287.601L432.486 138.53L421.644 127.576H443.346L519.796 50.0235C549.976 19.5132 590.483 1.69933 633.151 0.173889C675.818 -1.35155 717.47 13.5249 749.709 41.8036L760.832 30.5656L760.815 52.4557Z" fill="white"/>
</svg>
